<?xml version="1.0" encoding="UTF-8"?>
<svg version="1.1" xmlns="http://www.w3.org/2000/svg" width="1024" height="1024">
<path d="M0 0 C4.55656389 0.04164936 9.11321277 0.07013577 13.66986561 0.10013247 C22.32879536 0.15896489 30.98760303 0.22840762 39.6464169 0.3022033 C54.93234664 0.43198743 70.21844676 0.54011983 85.50452757 0.65037894 C91.08893175 0.69078514 96.67331872 0.73300658 102.25769949 0.7765224 C120.01177357 0.91409033 137.76473773 1.02628532 155.51941395 1.0057416 C156.25052844 1.00500147 156.98164292 1.00426135 157.7349124 1.00349879 C165.12031612 0.99545295 172.5055917 0.97745999 179.89093494 0.94479799 C226.52857501 0.78425216 226.52857501 0.78425216 244.37683582 17.55164003 C254.51950288 28.36703501 256.12678495 40.96931907 256.05847645 55.28137636 C256.0625912 56.68211732 256.06805738 58.08285485 256.07475758 59.48358583 C256.08639978 62.4769506 256.08899707 65.47013141 256.08440113 68.4635148 C256.07754462 73.20023415 256.09353653 77.9367147 256.11279774 82.67338991 C256.15370843 93.57462142 256.16520062 104.47584521 256.17632771 115.37714052 C256.18684568 125.38881924 256.20363156 135.40038182 256.24442339 145.41198891 C256.26274529 150.11788068 256.26668514 154.82349542 256.25948811 159.5294143 C256.25796448 162.45567935 256.26876004 165.38180602 256.28286648 168.30803347 C256.28876383 170.30587257 256.27977509 172.30373834 256.27031422 174.30156374 C256.27851688 175.497139 256.28671955 176.69271425 256.29517078 177.92451906 C256.29588329 178.95923247 256.2965958 179.99394588 256.2973299 181.06001425 C256.88115353 185.62170805 258.50138872 188.94495194 261.91589832 192.02039003 C262.78472645 192.61206972 263.65355457 193.20374941 264.54871082 193.81335878 C265.52710926 194.49398378 266.5055077 195.17460878 267.51355457 195.87585878 C269.62750409 197.29735265 271.74472443 198.71399392 273.86511707 200.12585878 C309.42571863 224.08968174 332.97515145 261.35414889 341.44031239 303.11584902 C349.23984564 345.22844517 341.11999536 389.14179227 316.94934559 424.72327089 C310.13303849 434.35992965 302.34918836 443.98238815 293.67371082 452.00085878 C293.01371082 452.00085878 292.35371082 452.00085878 291.67371082 452.00085878 C291.67371082 452.66085878 291.67371082 453.32085878 291.67371082 454.00085878 C289.69193122 455.75972635 287.70845445 457.38882937 285.61121082 459.00085878 C284.97562244 459.49070253 284.34003407 459.98054628 283.68518543 460.48523378 C281.6917969 462.00493856 279.6862213 463.50658709 277.67371082 465.00085878 C277.09137684 465.43527285 276.50904285 465.86968691 275.90906239 466.31726503 C259.12094764 478.6498122 239.85852603 487.08040004 219.67371082 492.00085878 C218.99324696 492.17053164 218.31278309 492.34020449 217.6116991 492.51501894 C195.07862514 497.95094809 170.63491794 496.09270361 147.67371082 496.00085878 C147.67371082 482.80085878 147.67371082 469.60085878 147.67371082 456.00085878 C167.11121082 455.62585878 167.11121082 455.62585878 173.12854481 455.52283144 C187.39390762 455.23628554 201.67796261 454.58967773 215.48621082 450.68835878 C216.28043446 450.47034609 217.07465809 450.25233339 217.8929491 450.02771425 C234.18427528 445.42083588 248.4865429 437.56613029 261.67371082 427.00085878 C262.69271473 426.19648378 262.69271473 426.19648378 263.73230457 425.37585878 C286.18910406 406.97028593 300.48298378 377.10804898 303.47302723 348.50867128 C306.22905259 314.06841271 297.84887685 281.00121394 275.47839832 254.20007753 C269.50003603 247.27566562 263.36520977 241.03233413 255.67371082 236.00085878 C255.6764762 236.60732335 255.67924158 237.21378792 255.68209076 237.8386302 C255.74856524 252.64754474 255.79809527 267.45644473 255.82914734 282.26547194 C255.84456598 289.42724094 255.86555878 296.58890989 255.90002918 303.75061464 C255.93008587 309.99832841 255.94932211 316.24596966 255.95597631 322.49375373 C255.95986129 325.79689116 255.97049943 329.09977483 255.99090099 332.4028573 C256.01284784 336.10516177 256.01567051 339.80704411 256.01428699 343.50940371 C256.03046574 345.12242876 256.03046574 345.12242876 256.04697132 346.76804018 C255.97976859 363.51284395 250.54002175 378.92074045 238.67371082 391.00085878 C238.01371082 391.00085878 237.35371082 391.00085878 236.67371082 391.00085878 C236.67371082 391.66085878 236.67371082 392.32085878 236.67371082 393.00085878 C216.16742458 408.50780225 194.30934424 408.33164733 169.54871082 408.12585878 C167.4146005 408.11579682 165.28048551 408.10667672 163.14636707 408.09851503 C157.98860113 408.07850818 152.83150172 408.03931787 147.67371082 408.00085878 C147.67371082 394.80085878 147.67371082 381.60085878 147.67371082 368.00085878 C151.0948827 368.03566347 154.51605457 368.07046816 158.04089832 368.10632753 C161.38040808 368.12977128 164.71990841 368.14796044 168.05945301 368.16565371 C170.36776347 368.1806742 172.67604571 368.20109658 174.9842577 368.22717714 C178.31570907 368.26385763 181.64678077 368.28065309 184.97839832 368.29382753 C185.99860065 368.30931139 187.01880299 368.32479525 188.06992054 368.34074831 C197.16993815 368.34285183 205.49297655 367.08982079 212.27136707 360.59851503 C218.62084003 353.36471437 217.82213215 343.5647808 217.80742359 334.50557375 C217.80968915 333.47321099 217.8119547 332.44084822 217.81428891 331.37720174 C217.82059979 327.93118595 217.81980144 324.48520978 217.81897449 321.03918886 C217.82196768 318.56339387 217.82537058 316.08759935 217.82915211 313.61180544 C217.83706131 307.59401639 217.84020587 301.57624282 217.84076449 295.55845002 C217.84124041 290.66785451 217.84329896 285.77726222 217.84646511 280.88666773 C217.85526313 267.01420244 217.85988546 253.14174487 217.85913464 239.26927678 C217.85909468 238.52239073 217.85905472 237.77550469 217.85901356 237.00598574 C217.85897268 236.25818638 217.8589318 235.51038702 217.85888968 234.73992708 C217.85848275 222.60613004 217.86806632 210.47236396 217.88215192 198.33857588 C217.89650828 185.87312947 217.90342262 173.40769817 217.90255815 160.94224328 C217.90222607 153.94626871 217.90497812 146.95032665 217.9157362 139.95435953 C217.92578063 133.38062779 217.92551357 126.80695314 217.91821957 120.2332139 C217.91717082 117.8180829 217.91955368 115.40294767 217.92558002 112.98782396 C217.93326153 109.69686509 217.92868068 106.40614635 217.92094898 103.11519289 C217.92866433 101.67444618 217.92866433 101.67444618 217.93653554 100.20459348 C217.90633589 94.40712352 217.64029924 90.23044438 213.66145802 85.71950197 C209.38361065 83.25875387 205.7251925 83.45132494 200.86975574 83.50256777 C199.88701176 83.49704897 198.90426777 83.49153017 197.89174366 83.48584414 C195.76104892 83.47652932 193.6302985 83.47641466 191.4995985 83.48443842 C188.12362234 83.49706684 184.74846402 83.48577851 181.37251759 83.46840334 C175.41941999 83.44168388 169.46652254 83.43610813 163.51337147 83.43750429 C153.99566616 83.43973114 144.47820932 83.42554786 134.96060085 83.38191843 C131.64138269 83.37209956 128.32255641 83.38078892 125.00334644 83.39061403 C122.95751155 83.38446707 120.91167876 83.37755442 118.86584949 83.36975527 C117.9486916 83.37747454 117.0315337 83.38519381 116.08658314 83.39314699 C107.37582195 83.32486162 101.02498267 81.06343645 94.67371082 75.00085878 C93.31543112 73.35445914 91.98116832 71.68790071 90.67371082 70.00085878 C87.39618539 66.61724649 84.01130007 63.42845665 80.42371082 60.37585878 C79.55230457 59.62046816 78.68089832 58.86507753 77.78308582 58.08679628 C69.51738356 52.54171461 61.160981 52.59114723 51.45105457 52.70789003 C50.09628746 52.71349719 48.74151419 52.71776198 47.38673878 52.72075319 C43.85046557 52.73211412 40.31457209 52.76150357 36.77844715 52.79486513 C33.15830081 52.82575688 29.53809209 52.83929901 25.91785145 52.85437441 C18.83631751 52.88638355 11.75503918 52.93747136 4.67371082 53.00085878 C4.70469553 53.8357011 4.70469553 53.8357011 4.73630619 54.68740892 C5.23421249 68.37361675 5.56727671 82.05585046 5.73330021 95.75022936 C5.81837159 102.3755324 5.9537809 108.98828948 6.2132616 115.6097455 C8.03929874 163.72253873 8.03929874 163.72253873 -4.28485012 177.6623311 C-9.41231285 182.96127146 -15.14784525 187.43523949 -21.17162609 191.66211367 C-24.67204891 194.25719167 -27.33210496 197.01977846 -30.00469494 200.43732119 C-31.32628918 202.00085878 -31.32628918 202.00085878 -34.32628918 204.00085878 C-34.32628918 150.21085878 -34.32628918 96.42085878 -34.32628918 41.00085878 C-70.73618562 44.64184843 -106.79814296 50.50556595 -137.32628918 72.00085878 C-138.67207043 72.93865175 -138.67207043 72.93865175 -140.04503918 73.89539003 C-147.70909605 79.35280132 -155.44798891 85.01576474 -162.02160168 91.77039003 C-164.32628918 94.00085878 -164.32628918 94.00085878 -166.32628918 94.00085878 C-166.58410168 94.58996035 -166.84191418 95.17906191 -167.10753918 95.78601503 C-168.42781372 98.18536011 -169.81627223 99.58897844 -171.82628918 101.43835878 C-195.06621282 124.26029819 -210.82016575 157.17587058 -216.91222668 188.88367128 C-217.04270397 189.56065569 -217.17318127 190.23764009 -217.30761242 190.93513918 C-217.94613466 194.28880223 -218.55162546 197.64447512 -219.11046886 201.01233339 C-219.32864269 202.23702333 -219.54681652 203.46171328 -219.77160168 204.72351503 C-220.0425465 206.3594562 -220.0425465 206.3594562 -220.31896496 208.02844667 C-221.57436235 211.73287305 -223.3622997 213.49905939 -226.32628918 216.00085878 C-228.58800793 216.63757753 -228.58800793 216.63757753 -231.01378918 216.68835878 C-232.45044933 216.76183535 -232.45044933 216.76183535 -233.91613293 216.83679628 C-235.04148449 216.89093691 -236.16683605 216.94507753 -237.32628918 217.00085878 C-269.30902169 219.48540399 -297.64816217 231.85214151 -319.17785168 256.14929628 C-340.9565556 281.87841405 -348.19978487 314.00280071 -346.32628918 347.00085878 C-344.2863664 371.01717184 -333.84681228 393.10936189 -319.32628918 412.00085878 C-318.67144543 412.8529291 -318.01660168 413.70499941 -317.34191418 414.58289003 C-297.20299299 438.74178968 -266.1587343 452.11962963 -235.32628918 455.00085878 C-231.96811944 455.14304211 -228.6137981 455.15546684 -225.25292492 455.15907717 C-224.26603695 455.16401514 -223.27914899 455.16895312 -222.26235533 455.17404073 C-218.97051718 455.18934317 -215.67869843 455.19775662 -212.38683605 455.20618105 C-210.02115237 455.21576528 -207.65547038 455.22577568 -205.28979015 455.23617983 C-198.87725611 455.26317589 -192.46471475 455.28421412 -186.05215549 455.30418181 C-180.02661963 455.32339211 -174.00110427 455.34799168 -167.97558647 455.37210404 C-156.04497381 455.41970197 -144.11434958 455.46298714 -132.18371105 455.50354433 C-120.59776441 455.54293904 -109.01182802 455.58437472 -97.42589855 455.62854433 C-96.35373283 455.63263074 -96.35373283 455.63263074 -95.25990719 455.6367997 C-91.67389503 455.65047983 -88.08788303 455.66419998 -84.50187111 455.67794001 C-54.77669857 455.79178219 -25.05150306 455.89835148 4.67371082 456.00085878 C4.67371082 468.87085878 4.67371082 481.74085878 4.67371082 495.00085878 C0.7390499 496.31241243 -3.00659862 496.13854951 -7.10779858 496.12784243 C-8.01646095 496.12940242 -8.92512332 496.13096241 -9.86132091 496.13256967 C-12.91940279 496.13657189 -15.9774354 496.13339284 -19.03551769 496.13025331 C-21.22347575 496.13160784 -23.41143359 496.13338806 -25.59939098 496.13556337 C-31.55684917 496.14013562 -37.51429009 496.13834793 -43.47174859 496.13518429 C-49.71337795 496.13265483 -55.95500583 496.13500031 -62.19663525 496.13657045 C-73.3690314 496.13850928 -84.54142122 496.13539367 -95.71381586 496.13031112 C-105.81014877 496.12585967 -115.90647016 496.12660529 -126.00280285 496.13122988 C-137.74263457 496.1366048 -149.48245956 496.13855978 -161.22229236 496.13561761 C-167.43011815 496.13406558 -173.63793603 496.13383104 -179.8457613 496.1371541 C-185.69881754 496.1400678 -191.55185232 496.13799356 -197.40490627 496.13225985 C-199.54043638 496.13094994 -201.67596834 496.13129582 -203.81149769 496.13352251 C-213.61557278 496.14279291 -223.39911745 496.093486 -233.19114208 495.56699038 C-233.8890497 495.5298257 -234.58695731 495.49266102 -235.30601364 495.45437014 C-273.77374143 493.10370948 -309.50533803 476.33918871 -337.32628918 450.00085878 C-338.21058605 449.18101503 -339.09488293 448.36117128 -340.00597668 447.51648378 C-347.48244857 440.357709 -353.55344121 432.56828997 -359.32628918 424.00085878 C-359.72589855 423.4082123 -360.12550793 422.81556581 -360.53722668 422.20496035 C-376.65812427 397.8477988 -385.10729995 369.06613324 -386.32628918 340.00085878 C-386.36753918 339.0894916 -386.40878918 338.17812441 -386.45128918 337.23914003 C-387.20055467 303.66268007 -377.45871902 268.10220664 -357.32628918 241.00085878 C-356.94311535 240.47250429 -356.55994152 239.9441498 -356.16515636 239.39978456 C-345.19768571 224.35129265 -332.14647244 210.92237372 -316.32628918 201.00085878 C-315.48034191 200.4683954 -315.48034191 200.4683954 -314.6173048 199.92517519 C-302.29517398 192.29233874 -289.36033248 186.6765583 -275.45128918 182.62585878 C-274.59591564 182.37497499 -273.74054211 182.12409121 -272.85924816 181.86560488 C-267.03600916 180.2497588 -261.35201088 179.41692435 -255.32628918 179.00085878 C-255.11875011 178.0894916 -254.91121105 177.17812441 -254.69738293 176.23914003 C-242.99112908 126.30865182 -215.82946526 81.7301861 -175.32628918 50.00085878 C-174.3182423 49.18746035 -173.31019543 48.37406191 -172.27160168 47.53601503 C-164.38230784 41.23164573 -156.12178146 35.94688174 -147.32628918 31.00085878 C-146.63357922 30.60398867 -145.94086926 30.20711855 -145.22716808 29.79822206 C-99.67731482 3.87110983 -51.32352266 -0.49792541 0 0 Z " fill="#92B6FE" transform="translate(530.3262891769409,239.99914121627808)"/>
<path d="M0 0 C5.48676978 2.9544145 9.12349347 6.63051392 13.125 11.3046875 C15.63351445 14.19132361 18.21505591 17.00621193 20.8125 19.8125 C21.32039062 20.36147949 21.82828125 20.91045898 22.3515625 21.47607422 C26.92094869 26.40701591 31.51259859 31.31715898 36.10327148 36.22827148 C40.61646179 41.06058256 45.0920522 45.92571305 49.5546875 50.8046875 C60.01209667 62.23205926 70.59443126 73.54033633 81.20263672 84.82763672 C88.40426892 92.49098138 95.60219083 100.1554932 102.67578125 107.9375 C104.44834999 109.87414566 106.23144016 111.78844882 108.04296875 113.6875 C117.96635597 124.22662408 117.96635597 124.22662408 118.3984375 131.1171875 C118.20863646 136.79396391 116.65092722 140.49465251 113.2109375 144.9609375 C107.46900278 150.19959508 102.54029333 151.40361188 95 151.5625 C94.11046631 151.59110107 93.22093262 151.61970215 92.30444336 151.64916992 C84.47395607 151.83999411 76.642135 151.75035621 68.8125 151.5625 C67.0804834 151.53603394 67.0804834 151.53603394 65.31347656 151.5090332 C59.01365955 151.29107701 55.02953595 150.98396191 50.25 146.75 C49.63253906 146.20859375 49.01507812 145.6671875 48.37890625 145.109375 C47.86199219 144.57828125 47.34507812 144.0471875 46.8125 143.5 C46.22855469 142.90316406 45.64460937 142.30632812 45.04296875 141.69140625 C43.16687094 139.65998879 41.39923161 137.55811088 39.625 135.4375 C37.09390815 132.48360725 35.14696445 130.69471865 31.25 129.75 C29.50119195 131.49880805 30.11820474 133.78816793 30.10406977 136.11942953 C30.1044559 136.89566705 30.10484203 137.67190456 30.10523987 138.47166443 C30.0999496 139.69967894 30.0999496 139.69967894 30.09455246 140.95250183 C30.08381053 143.7176077 30.08017491 146.48267919 30.07641602 149.24780273 C30.07011466 151.22184903 30.06334933 153.1958939 30.05615234 155.16993713 C30.04144892 159.43317303 30.0297375 163.6964033 30.02020454 167.95965385 C30.00478273 174.70449793 29.98083127 181.44929463 29.95530701 188.19410706 C29.88403087 207.3783163 29.82441188 226.56255329 29.77319336 245.74682617 C29.74485452 256.33295871 29.70944871 266.91904472 29.66653961 277.50512844 C29.63980927 284.20520731 29.62187746 290.9052335 29.61050236 297.60535514 C29.60134947 301.78497876 29.58397401 305.96453878 29.56432343 310.14412498 C29.5568753 312.07659653 29.55276852 314.00908443 29.55232811 315.94157028 C29.54103197 343.37538761 29.54103197 343.37538761 19.27734375 354.98046875 C11.65141984 362.35726992 3.2990059 365.97853382 -7.3125 366.3125 C-18.22546772 365.88891188 -26.93840305 362.47023324 -34.75 354.75 C-41.43262856 346.75131768 -44.21298334 338.13783645 -44.14872742 327.80918884 C-44.15537424 326.95620368 -44.16202107 326.10321852 -44.16886932 325.22438532 C-44.18738968 322.39157194 -44.18490146 319.55918502 -44.18237305 316.72631836 C-44.1913969 314.6856019 -44.20172565 312.64489085 -44.21325684 310.60418701 C-44.24077959 305.08215439 -44.25010497 299.56022475 -44.25611091 294.03813243 C-44.26550683 288.2605335 -44.29171125 282.48301111 -44.31611633 276.70545959 C-44.35975142 265.77286543 -44.3883168 254.84028615 -44.41143972 243.90763146 C-44.43850738 231.45779684 -44.48241796 219.00803935 -44.52772844 206.55825984 C-44.62053191 180.9555484 -44.69223237 155.35281277 -44.75 129.75 C-50.3144347 130.44567412 -52.20332419 131.69527664 -55.875 136 C-56.70257812 136.95390625 -57.53015625 137.9078125 -58.3828125 138.890625 C-59.90262164 140.72643406 -61.39621675 142.58444686 -62.85546875 144.46875 C-67.19848765 149.69828203 -71.8625217 150.97293916 -78.29901123 151.58676147 C-82.24949333 151.84986789 -86.17580145 151.84060596 -90.1328125 151.76953125 C-91.42057083 151.7483448 -91.42057083 151.7483448 -92.73434448 151.72673035 C-94.53438751 151.69386626 -96.33437067 151.65755475 -98.13427734 151.61791992 C-100.87470783 151.56250591 -103.61464077 151.53405719 -106.35546875 151.50585938 C-108.11461766 151.47041454 -109.87373503 151.43336013 -111.6328125 151.39453125 C-112.44340118 151.39016556 -113.25398987 151.38579987 -114.08914185 151.38130188 C-120.5664522 151.18858872 -124.8701944 149.41754901 -129.7109375 144.93359375 C-130.17757813 144.35738281 -130.64421875 143.78117188 -131.125 143.1875 C-131.60710937 142.60871094 -132.08921875 142.02992188 -132.5859375 141.43359375 C-135.61216782 137.05673043 -135.47375336 131.83119629 -134.75 126.75 C-131.33352667 118.16945638 -122.75776416 111.14617187 -116.47802734 104.57080078 C-114.07389525 102.03759689 -111.72445865 99.45904908 -109.375 96.875 C-102.92733462 89.82227511 -96.36151647 82.88171855 -89.80517578 75.93017578 C-78.49423039 63.93139106 -78.49423039 63.93139106 -67.3125 51.8125 C-60.89197964 44.78321919 -54.35011868 37.86911736 -47.81835938 30.94335938 C-45.10694419 28.06808152 -42.39609375 25.19228822 -39.68920898 22.31274414 C-38.40906737 20.95105253 -37.12735918 19.59083177 -35.84399414 18.23217773 C-32.58229527 14.76534057 -29.4674473 11.2360834 -26.4375 7.5625 C-19.25954184 -0.54766052 -10.24966441 -3.4165548 0 0 Z " fill="#85B4FE" transform="translate(612.75,412.25)"/>
<path d="M0 0 C1.14797058 -0.00335861 2.29594116 -0.00671722 3.47869873 -0.01017761 C7.2336132 -0.0195957 10.9884827 -0.0216256 14.7434082 -0.02270508 C17.37270628 -0.0259223 20.00200417 -0.02928671 22.63130188 -0.03279114 C28.12415863 -0.03915592 33.61700334 -0.04067648 39.10986328 -0.04003906 C45.4390409 -0.03943714 51.76813361 -0.05002245 58.09728974 -0.06578273 C64.21833369 -0.08047522 70.33933707 -0.08402614 76.46039772 -0.08342934 C79.05146445 -0.08460668 81.64253185 -0.08901462 84.23358727 -0.0967617 C87.85631728 -0.10658596 91.47882878 -0.10367456 95.1015625 -0.09765625 C96.69385429 -0.10608551 96.69385429 -0.10608551 98.3183136 -0.11468506 C105.50730949 -0.08441935 112.548003 0.10373373 118.79418945 3.95776367 C121.53809533 6.86796687 122.82183563 9.00175357 122.88793945 13.06713867 C122.52908404 17.83991565 121.43409609 20.76660185 117.85668945 24.14526367 C114.15869286 25.95611174 111.18391009 26.39754486 107.0880127 26.40596008 C105.35943275 26.4165873 105.35943275 26.4165873 103.59593201 26.4274292 C102.34071243 26.42495178 101.08549286 26.42247437 99.79223633 26.41992188 C98.449872 26.42427159 97.10751015 26.4294556 95.76515198 26.43540955 C92.12677056 26.44878145 88.48849313 26.44938036 84.85009193 26.44684625 C81.81074741 26.44577553 78.77142383 26.45066235 75.7320838 26.45545167 C68.56185172 26.4665401 61.39167204 26.46698768 54.22143555 26.4609375 C46.82721587 26.45489427 39.43318632 26.46721901 32.03899908 26.48850757 C25.68641876 26.50612394 19.33389896 26.51212497 12.98129511 26.50886983 C9.18892908 26.50705723 5.39669875 26.50969086 1.60435486 26.52358437 C-1.96127757 26.53615914 -5.52661342 26.5342222 -9.09224129 26.52117348 C-11.02235309 26.51768039 -12.95247393 26.52898763 -14.8825531 26.54074097 C-16.03493973 26.53372665 -17.18732635 26.52671234 -18.37463379 26.51948547 C-19.37381584 26.51965322 -20.37299789 26.51982096 -21.40245819 26.51999378 C-25.69293356 25.93339878 -28.32199054 23.89999017 -31.45581055 21.02026367 C-33.806834 17.01481631 -34.07777016 13.68178555 -33.14331055 9.14526367 C-31.07592424 5.28832162 -28.18488202 2.78015717 -24.14331055 1.14526367 C-16.19497276 -0.11038677 -8.02850446 -0.00344724 0 0 Z " fill="#90ADFE" transform="translate(597.143310546875,354.854736328125)"/>
<path d="M0 0 C0.33 0 0.66 0 1 0 C1 337.92 1 675.84 1 1024 C0.67 1024 0.34 1024 0 1024 C0 686.08 0 348.16 0 0 Z " fill="#D6D6D7" transform="translate(0,0)"/>
<path d="M0 0 C2.64590014 -0.02684679 5.29153096 -0.04676357 7.9375 -0.0625 C8.69224609 -0.07087891 9.44699219 -0.07925781 10.22460938 -0.08789062 C12.14994313 -0.09652441 14.07535581 -0.05224333 16 0 C18.15290947 2.15290947 17.37569479 6.93345738 17.5 9.9375 C17.56880423 11.59262399 17.64153707 13.24759071 17.71875 14.90234375 C17.74904297 15.63960693 17.77933594 16.37687012 17.81054688 17.13647461 C17.89807865 19.09153702 17.89807865 19.09153702 19 21 C19.09681128 22.81566822 19.13075898 24.63487879 19.1328125 26.453125 C19.13474609 28.09474609 19.13474609 28.09474609 19.13671875 29.76953125 C19.13285156 30.91808594 19.12898438 32.06664062 19.125 33.25 C19.13080078 34.94962891 19.13080078 34.94962891 19.13671875 36.68359375 C19.13542969 37.78316406 19.13414062 38.88273437 19.1328125 40.015625 C19.13168457 41.01883789 19.13055664 42.02205078 19.12939453 43.05566406 C19 46 19 46 18.42919922 49.24902344 C17.73502465 51.95317097 17.73502465 51.95317097 19 54 C18.67 54.99 18.34 55.98 18 57 C18.29531069 58.34226692 18.63117343 59.67604537 19 61 C19.09532627 63.77831119 19.14008718 66.53058756 19.1328125 69.30859375 C19.13424759 70.51419701 19.13424759 70.51419701 19.13571167 71.74415588 C19.13639104 73.44117308 19.1345537 75.1381929 19.13037109 76.83520508 C19.12502642 79.42470173 19.13032069 82.0140244 19.13671875 84.60351562 C19.13605779 86.25520871 19.13477625 87.9069017 19.1328125 89.55859375 C19.13483673 90.32956894 19.13686096 91.10054413 19.13894653 91.8948822 C19.12231726 95.73271212 18.85472648 99.26067991 18 103 C18.12433966 105.1766049 18.12433966 105.1766049 18.5 107.3125 C18.92346136 110.48316695 18.9663437 113.20969211 18.5 116.375 C17.73512266 119.94351384 17.73512266 119.94351384 19 123 C18.99264086 125.09340747 18.91915256 127.18684483 18.80859375 129.27734375 C18.75123047 130.51291016 18.69386719 131.74847656 18.63476562 133.02148438 C18.50344143 135.62846458 18.36803605 138.23524246 18.22851562 140.84179688 C18.17244141 142.07865234 18.11636719 143.31550781 18.05859375 144.58984375 C17.99986084 145.72284912 17.94112793 146.85585449 17.88061523 148.02319336 C17.999094 150.97740917 18.44743206 152.5259371 20 155 C21.32 154.01 22.64 153.02 24 152 C24.33 152.99 24.66 153.98 25 155 C23.671875 156.97265625 23.671875 156.97265625 21.75 159.0625 C21.12609375 159.75472656 20.5021875 160.44695312 19.859375 161.16015625 C18 163 18 163 15 165 C15 110.88 15 56.76 15 1 C10.38 1.33 5.76 1.66 1 2 C0.67 1.34 0.34 0.68 0 0 Z " fill="#9BD1FE" transform="translate(481,279)"/>
<path d="M0 0 C2.43553271 2.43553271 2.25140393 3.03397022 2.25726891 6.37073231 C2.2637178 7.29473074 2.27016669 8.21872917 2.276811 9.17072755 C2.2737138 10.19259257 2.2706166 11.21445758 2.26742554 12.26728821 C2.27195665 13.3476106 2.27648776 14.427933 2.28115618 15.54099244 C2.29388438 19.18532993 2.2921744 22.8295196 2.29052734 26.47387695 C2.29650737 29.07686558 2.30331169 31.67985243 2.31088257 34.28283691 C2.32751909 40.63432818 2.33299333 46.98578232 2.33410732 53.33729354 C2.33505667 58.49929898 2.33916126 63.66129213 2.34550858 68.82329369 C2.36312921 83.45060033 2.37234631 98.07787759 2.37084763 112.70519493 C2.37076772 113.49430433 2.3706878 114.28341374 2.37060547 115.09643555 C2.37052371 115.88650591 2.37044195 116.67657627 2.37035771 117.49058815 C2.36954486 130.29408938 2.38868009 143.09747296 2.4168822 155.90094016 C2.44559497 169.03969021 2.45942334 182.17838285 2.45769465 195.31716508 C2.45703013 202.69668078 2.46254933 210.07607319 2.48405075 217.45556068 C2.50414092 224.39534642 2.50360523 231.3348674 2.48901749 238.27466583 C2.48691957 240.8252494 2.49168833 243.37584899 2.5037384 245.92640495 C2.5190974 249.40183383 2.50994371 252.87635259 2.49447632 256.35176086 C2.50476344 257.36693372 2.51505057 258.38210657 2.52564943 259.42804223 C2.48292803 263.75621049 2.44610461 266.27506553 0.14097023 270.0209837 C-2.15502354 272.14329677 -4.49849741 274.12387306 -7 276 C-7.66 275.67 -8.32 275.34 -9 275 C-8.60167969 274.59910156 -8.20335937 274.19820312 -7.79296875 273.78515625 C-6.99826172 272.93244141 -6.99826172 272.93244141 -6.1875 272.0625 C-5.40439453 271.24458984 -5.40439453 271.24458984 -4.60546875 270.41015625 C-0.02210879 263.52954044 0.43241831 256.13356768 0.36076355 248.08506775 C0.36332682 247.01973786 0.3658901 245.95440798 0.36853105 244.85679537 C0.37345229 241.30533405 0.35700302 237.75430268 0.34057617 234.20288086 C0.33972954 231.64986176 0.34020574 229.09684192 0.34190369 226.54382324 C0.34258571 221.05672218 0.33410493 215.56975832 0.31719017 210.08268547 C0.29275073 202.14944913 0.28498986 194.21626447 0.2812262 186.28299458 C0.27466945 173.41006918 0.25472942 160.537201 0.22631836 147.66430664 C0.19875765 135.1636585 0.17753393 122.66302593 0.16479492 110.16235352 C0.16400675 109.39108617 0.16321858 108.61981883 0.16240653 107.82517975 C0.15849125 103.9557411 0.15470017 100.08630234 0.15097082 96.21686351 C0.1198991 64.1445341 0.06708453 32.07227501 0 0 Z " fill="#E1D8FE" transform="translate(748,329)"/>
<path d="M0 0 C0.99 0.66 1.98 1.32 3 2 C2.79503906 2.556875 2.59007812 3.11375 2.37890625 3.6875 C1.02668134 7.51772557 -0.13933412 11.13607849 -0.5625 15.1875 C-1 19 -1 19 -1.9921875 21.82421875 C-3.0583199 25.1837755 -3.36920553 28.11279837 -3.5625 31.625 C-3.90695596 37.65649412 -3.90695596 37.65649412 -4.50708008 39.87207031 C-5.0762722 42.32926623 -5.12957622 44.5483248 -5.1328125 47.0703125 C-5.13410156 48.05 -5.13539063 49.0296875 -5.13671875 50.0390625 C-5.13285156 51.05742188 -5.12898437 52.07578125 -5.125 53.125 C-5.12886719 54.12015625 -5.13273438 55.1153125 -5.13671875 56.140625 C-5.55391539 66.84900566 -5.55391539 66.84900566 -3 77 C-2.92966231 78.87379605 -2.9156978 80.75001102 -2.9375 82.625 C-2.94652344 83.62789062 -2.95554688 84.63078125 -2.96484375 85.6640625 C-2.97644531 86.43492187 -2.98804688 87.20578125 -3 88 C-2.34 88 -1.68 88 -1 88 C-0.8453125 89.423125 -0.8453125 89.423125 -0.6875 90.875 C0.45289758 98.76274994 3.36785197 106.19690744 6.328125 113.5546875 C7.05024015 116.18285078 6.91728443 117.47158779 6 120 C2.49269137 116.14089445 1.17375924 111.48094694 -0.4375 106.625 C-0.89600342 105.24344727 -0.89600342 105.24344727 -1.36376953 103.83398438 C-5.86758284 89.71392104 -8.53102626 74.82364812 -9 60 C-9.03996094 59.09378906 -9.07992187 58.18757812 -9.12109375 57.25390625 C-9.57562517 37.97642645 -6.39357755 18.16995378 0 0 Z " fill="#A9E3FD" transform="translate(153,520)"/>
<path d="M0 0 C0.99 0.495 0.99 0.495 2 1 C0 4 0 4 -3 5 C-4.85214456 5.09084396 -6.70744305 5.1219511 -8.56181335 5.12025452 C-10.297108 5.12231651 -10.297108 5.12231651 -12.06745911 5.12442017 C-13.33772446 5.12082489 -14.60798981 5.11722961 -15.91674805 5.11352539 C-17.26692706 5.11324334 -18.61710623 5.1134016 -19.96728516 5.1139679 C-23.63435933 5.11425517 -27.30140089 5.10836971 -30.96846747 5.10139394 C-34.80016906 5.09514878 -38.63187138 5.09455568 -42.46357727 5.09336853 C-49.72021628 5.09025865 -56.97684026 5.08204987 -64.23347265 5.07201904 C-72.49456797 5.06084727 -80.755664 5.05534477 -89.016765 5.05032361 C-106.01118537 5.03986698 -123.0055911 5.02227416 -140 5 C-140 4.34 -140 3.68 -140 3 C-140.99 2.67 -141.98 2.34 -143 2 C-142.34 1.67 -141.68 1.34 -141 1 C-140.34 1.33 -139.68 1.66 -139 2 C-137.23745922 2.09752148 -135.47121246 2.1306936 -133.70597839 2.13371277 C-132.58295822 2.13797775 -131.45993805 2.14224274 -130.30288696 2.14663696 C-129.06493378 2.14618378 -127.82698059 2.14573059 -126.55151367 2.14526367 C-125.25227463 2.14862228 -123.95303558 2.1519809 -122.61442566 2.15544128 C-119.04406962 2.16429242 -115.47373752 2.16661991 -111.90337157 2.16725707 C-108.92383136 2.16820566 -105.94429675 2.17188351 -102.96475869 2.17542917 C-95.93410383 2.18357849 -88.90346178 2.18601302 -81.87280273 2.18530273 C-74.62013002 2.18470228 -67.36753176 2.19524657 -60.11487788 2.2110464 C-53.88975429 2.22412457 -47.66465502 2.22948649 -41.4395178 2.22884732 C-37.72090974 2.22859235 -34.0023678 2.2314428 -30.28377342 2.24202538 C-26.13468724 2.25350995 -21.98576759 2.24895783 -17.83666992 2.24291992 C-16.60478943 2.24853943 -15.37290894 2.25415894 -14.10369873 2.25994873 C-12.97221909 2.25575424 -11.84073944 2.25155975 -10.67497253 2.24723816 C-9.69401706 2.24778293 -8.71306158 2.24832769 -7.70238018 2.24888897 C-4.81050183 1.98254724 -2.67223205 1.08527937 0 0 Z " fill="#A9BFFE" transform="translate(713,376)"/>
<path d="M0 0 C0.99 0.495 0.99 0.495 2 1 C2 1.66 2 2.32 2 3 C0.6696875 3.61875 0.6696875 3.61875 -0.6875 4.25 C-3.98423172 5.8591982 -3.98423172 5.8591982 -6.5 8 C-9 10 -9 10 -12 11.4375 C-15.34464739 13.17950385 -17.38268801 15.31381138 -20 18 C-20.60199219 18.29777344 -21.20398438 18.59554688 -21.82421875 18.90234375 C-24.57447033 20.28981358 -26.78786408 22.07178443 -29.1875 24 C-30.06792969 24.70125 -30.94835937 25.4025 -31.85546875 26.125 C-34.06824008 27.82065433 -34.06824008 27.82065433 -35 30 C-35.73395996 30.42861328 -36.46791992 30.85722656 -37.22412109 31.29882812 C-40.43528166 33.26675836 -42.76663728 35.54112955 -45.4140625 38.21875 C-45.91038177 38.71789917 -46.40670105 39.21704834 -46.9180603 39.73132324 C-48.4918335 41.31621534 -50.05849189 42.90793003 -51.625 44.5 C-52.68442928 45.56947279 -53.74432087 46.63848782 -54.8046875 47.70703125 C-56.74849842 49.66712135 -58.68897927 51.6303037 -60.62744141 53.59570312 C-62.41178504 55.40391635 -64.20034908 57.20706141 -66 59 C-66.33 58.34 -66.66 57.68 -67 57 C-56.6785871 43.46748086 -44.48227216 31.37097858 -31 21 C-29.99839844 20.19304687 -28.99679687 19.38609375 -27.96484375 18.5546875 C-21.0222433 13.00443637 -13.80519717 8.2693172 -6.1171875 3.8125 C-4.04012 2.60478155 -1.99913711 1.33275807 0 0 Z " fill="#94DAFE" transform="translate(386,269)"/>
<path d="M0 0 C0.66 0 1.32 0 2 0 C2.09265098 12.95196563 2.16374035 25.90385252 2.20724869 38.85608196 C2.22812977 44.87023811 2.25645749 50.88416764 2.30175781 56.89819336 C2.34519613 62.70128929 2.36913318 68.50416715 2.37950897 74.3074131 C2.3869039 76.52222947 2.40134431 78.73703381 2.42292023 80.95175743 C2.45192677 84.05232986 2.45595706 87.15199942 2.45410156 90.25268555 C2.47567322 91.62833176 2.47567322 91.62833176 2.49768066 93.0317688 C2.47087692 97.16683572 2.38057713 99.39225209 0.14349365 102.9646759 C-2.13805556 105.1310887 -4.48307784 107.11230838 -7 109 C-7.66 108.67 -8.32 108.34 -9 108 C-8.60167969 107.59910156 -8.20335937 107.19820312 -7.79296875 106.78515625 C-7.26316406 106.21667969 -6.73335937 105.64820313 -6.1875 105.0625 C-5.66542969 104.51722656 -5.14335938 103.97195313 -4.60546875 103.41015625 C-0.3364851 97.00148736 0.43860379 90.05747097 0.34057617 82.53295898 C0.34101425 81.63431625 0.34145233 80.73567352 0.34190369 79.80979919 C0.33983184 76.87166787 0.31657722 73.93412404 0.29296875 70.99609375 C0.28736708 68.94629732 0.28309968 66.89649685 0.28010559 64.84669495 C0.26870179 59.47578666 0.23927327 54.10512531 0.20599365 48.73431396 C0.1751962 43.24413391 0.16157964 37.75391359 0.14648438 32.26367188 C0.1143991 21.50900664 0.06325712 10.75452393 0 0 Z " fill="#D4CFFE" transform="translate(748,496)"/>
<path d="M0 0 C1.15118317 -0.00175232 2.30236633 -0.00350464 3.48843384 -0.00531006 C7.25296585 -0.0096732 11.01745002 -0.00681121 14.78198242 -0.00341797 C17.41607166 -0.00409237 20.05016085 -0.00506353 22.68424988 -0.00631714 C28.1855012 -0.0081278 33.68673902 -0.0057603 39.18798828 -0.00097656 C45.53308622 0.0044775 51.87815208 0.00269067 58.22324926 -0.00280297 C64.35497512 -0.00789757 70.48668683 -0.00734639 76.61841393 -0.00442123 C79.21671236 -0.00375515 81.81501162 -0.00456927 84.4133091 -0.00690079 C88.04118644 -0.00944333 91.66900223 -0.00556466 95.296875 0 C96.89995262 -0.00303635 96.89995262 -0.00303635 98.53541565 -0.00613403 C103.74133565 0.00864082 108.69570299 0.2216243 113.82495117 1.12939453 C113.82495117 1.45939453 113.82495117 1.78939453 113.82495117 2.12939453 C111.32538624 2.32656895 108.82579298 2.51231281 106.32495117 2.69189453 C105.62885742 2.74796875 104.93276367 2.80404297 104.21557617 2.86181641 C103.51948242 2.91015625 102.82338867 2.95849609 102.10620117 3.00830078 C101.4777832 3.05543213 100.84936523 3.10256348 100.2019043 3.15112305 C97.82495117 3.12939453 97.82495117 3.12939453 94.38720703 2.63513184 C89.07644069 1.95761707 83.79850641 1.99733645 78.4519043 2.01586914 C77.33882904 2.01572311 76.22575378 2.01557709 75.07894897 2.01542664 C71.42134614 2.01612004 67.76379504 2.02388557 64.10620117 2.03173828 C61.56172717 2.03360449 59.01725281 2.03502744 56.47277832 2.036026 C50.47356962 2.0394464 44.47438292 2.04731777 38.47518301 2.05737549 C31.6407891 2.06858282 24.80639427 2.07405869 17.97199345 2.07907093 C3.9229692 2.08950173 -10.1260388 2.10707228 -24.17504883 2.12939453 C-24.17504883 1.79939453 -24.17504883 1.46939453 -24.17504883 1.12939453 C-16.09674651 0.34177363 -8.1144017 -0.01551622 0 0 Z " fill="#A5C0FE" transform="translate(597.175048828125,354.87060546875)"/>
<path d="M0 0 C-4.97101455 4.19444332 -10.52368645 3.28404574 -16.64453125 3.07421875 C-18.33191658 3.03455742 -18.33191658 3.03455742 -20.0533905 2.99409485 C-23.64030695 2.90644502 -27.22619846 2.79725288 -30.8125 2.6875 C-33.24670826 2.62422968 -35.68095347 2.56236402 -38.11523438 2.50195312 C-44.07734726 2.35092202 -50.03876287 2.18220828 -56 2 C-55.67 3.65 -55.34 5.3 -55 7 C-55.33 16.57 -55.66 26.14 -56 36 C-36.2 35.67 -16.4 35.34 4 35 C2 37 2 37 -0.4803772 37.24050903 C-1.52406464 37.23606781 -2.56775208 37.23162659 -3.64306641 37.22705078 C-4.82413971 37.22689972 -6.00521301 37.22674866 -7.22207642 37.22659302 C-8.50230682 37.21627045 -9.78253723 37.20594788 -11.1015625 37.1953125 C-13.06166763 37.19106766 -13.06166763 37.19106766 -15.06137085 37.18673706 C-18.53682081 37.17909776 -22.01210383 37.1594469 -25.48748779 37.1373291 C-29.0333018 37.11687696 -32.57914357 37.1076272 -36.125 37.09765625 C-43.08348082 37.07726211 -50.04150309 37.03811715 -57 37 C-57 25.12 -57 13.24 -57 1 C-53.43703125 0.93941406 -49.8740625 0.87882813 -46.203125 0.81640625 C-42.75453588 0.75460817 -39.30597931 0.69122404 -35.85742188 0.62768555 C-33.45966485 0.58435845 -31.0618774 0.54268178 -28.6640625 0.50268555 C-25.21865674 0.44492937 -21.77340375 0.38124994 -18.328125 0.31640625 C-16.71855927 0.29133751 -16.71855927 0.29133751 -15.07647705 0.26576233 C-14.07574158 0.24581711 -13.0750061 0.22587189 -12.04394531 0.20532227 C-11.16458313 0.18977798 -10.28522095 0.1742337 -9.37921143 0.15821838 C-7.01708393 0.07935712 -7.01708393 0.07935712 -4.87225342 -0.57533264 C-3 -1 -3 -1 0 0 Z " fill="#7B98FE" transform="translate(736,609)"/>
<path d="M0 0 C2 1 2 1 3 3 C1.3603125 3.86625 1.3603125 3.86625 -0.3125 4.75 C-2.73247244 6.11275001 -3.94211623 6.92207954 -5.625 9.1875 C-6.07875 9.785625 -6.5325 10.38375 -7 11 C-8.09828125 11.14308594 -8.09828125 11.14308594 -9.21875 11.2890625 C-13.00076254 12.2558129 -15.16310157 14.52989166 -17.875 17.1875 C-18.93913398 18.20153992 -20.0042314 19.21456982 -21.0703125 20.2265625 C-21.57723633 20.71157227 -22.08416016 21.19658203 -22.60644531 21.69628906 C-24.25529295 23.23883398 -25.98494065 24.65533287 -27.75 26.0625 C-31.53224915 29.21282546 -34.35766778 33.10314097 -37.30078125 37.0234375 C-38.14189453 38.00183594 -38.14189453 38.00183594 -39 39 C-39.66 39 -40.32 39 -41 39 C-41.33 39.99 -41.66 40.98 -42 42 C-43.485 42.495 -43.485 42.495 -45 43 C-37.50071979 26.79423837 -20.56697201 13.57153981 -6 4 C-4.86534106 3.24430628 -3.73120506 2.48782665 -2.59765625 1.73046875 C-1.74042969 1.15941406 -0.88320312 0.58835937 0 0 Z " fill="#9CE0FE" transform="translate(220,437)"/>
<path d="M0 0 C0.66 0.33 1.32 0.66 2 1 C1 8.42857143 1 8.42857143 0 12 C-0.66 12 -1.32 12 -2 12 C-2 12.99 -2 13.98 -2 15 C-2.57218262 15.12004395 -3.14436523 15.24008789 -3.73388672 15.36376953 C-16.80819025 18.13837218 -29.41980078 21.48044695 -42 26 C-42.66 25.34 -43.32 24.68 -44 24 C-16.12921348 13 -16.12921348 13 -3 13 C-2.01 8.71 -1.02 4.42 0 0 Z " fill="#97DBFE" transform="translate(278,406)"/>
<path d="M0 0 C0 0.33 0 0.66 0 1 C-1.19036865 1.09704224 -1.19036865 1.09704224 -2.40478516 1.19604492 C-16.9602525 2.41932579 -31.16847418 3.75378856 -45.34619141 7.46166992 C-46.17296387 7.6754126 -46.99973633 7.88915527 -47.8515625 8.109375 C-48.56135254 8.30499023 -49.27114258 8.50060547 -50.00244141 8.70214844 C-52.27688981 9.04128643 -53.82568045 8.69407451 -56 8 C-55.01 8 -54.02 8 -53 8 C-53 7.34 -53 6.68 -53 6 C-50.43786446 5.35269196 -47.87531515 4.70710712 -45.3125 4.0625 C-44.59126953 3.88009766 -43.87003906 3.69769531 -43.12695312 3.50976562 C-32.56541085 0.8573235 -32.56541085 0.8573235 -27.8125 1 C-24.57339276 1.04269005 -21.46697421 0.87662137 -18.25 0.5 C-12.17073613 -0.18080084 -6.10916777 -0.08617948 0 0 Z " fill="#A5D7FE" transform="translate(496,280)"/>
<path d="M0 0 C-1.5277867 3.43752007 -3.50181056 6.18953688 -6 9 C-6.66 9 -7.32 9 -8 9 C-8.226875 9.5775 -8.45375 10.155 -8.6875 10.75 C-10.34726345 13.59530878 -12.42066667 14.93653334 -15 17 C-17.41125689 19.60135599 -19.7152609 22.28728384 -22 25 C-22.67211914 23.20043945 -22.67211914 23.20043945 -23 21 C-21.92358398 19.37182617 -21.92358398 19.37182617 -20.24609375 17.79296875 C-19.63830078 17.20580078 -19.03050781 16.61863281 -18.40429688 16.01367188 C-17.75525391 15.41103516 -17.10621094 14.80839844 -16.4375 14.1875 C-15.1837238 12.9960878 -13.9324055 11.80208356 -12.68359375 10.60546875 C-11.75716064 9.7244751 -11.75716064 9.7244751 -10.81201172 8.82568359 C-8.46215384 6.45809572 -6.39087711 3.90975331 -4.34399414 1.27856445 C-3 0 -3 0 0 0 Z " fill="#90CBFE" transform="translate(524,490)"/>
<path d="M0 0 C0.66015625 1.80078125 0.66015625 1.80078125 1 4 C-0.00390625 5.60546875 -0.00390625 5.60546875 -1.5625 7.1875 C-6.82411997 12.90081356 -10.76274377 19.23015343 -14.1328125 26.20703125 C-15.28455343 28.58833344 -16.48634031 30.8282274 -18 33 C-19.485 33.495 -19.485 33.495 -21 34 C-19.46026356 28.22365542 -16.51281235 23.65951856 -13.3125 18.6875 C-12.77592773 17.84533936 -12.23935547 17.00317871 -11.68652344 16.13549805 C-8.07013568 10.51418404 -4.34251315 5.09174958 0 0 Z " fill="#91DCFE" transform="translate(318,327)"/>
<path d="M0 0 C-2.53094922 1.68729948 -4.86102768 2.93582725 -7.60546875 4.20703125 C-8.95801758 4.8402832 -8.95801758 4.8402832 -10.33789062 5.48632812 C-12.21709446 6.36088563 -14.09728316 7.23333042 -15.97851562 8.10351562 C-21.03257932 10.47451357 -25.79596299 12.97541691 -30.43481445 16.08862305 C-32 17 -32 17 -34 17 C-34 16.01 -34 15.02 -34 14 C-32.88625 13.46375 -31.7725 12.9275 -30.625 12.375 C-27.34015983 10.74414625 -24.23649076 8.93975848 -21.125 7 C-14.61073955 3.05135597 -7.84137476 -0.82540787 0 0 Z " fill="#95D4FE" transform="translate(428,293)"/>
<path d="M0 0 C0.33 0.66 0.66 1.32 1 2 C-0.92921294 7.667063 -4.07178727 12.38732799 -7.37890625 17.3515625 C-8.90815449 19.84994878 -10.00311718 22.25237272 -11 25 C-11.99 25 -12.98 25 -14 25 C-12.60291053 20.28302268 -10.59126127 16.16865085 -8.125 11.9375 C-7.61646484 11.0393457 -7.61646484 11.0393457 -7.09765625 10.12304688 C-5.00222888 6.48592674 -2.70444036 3.20773307 0 0 Z " fill="#A2E3FE" transform="translate(174,480)"/>
<path d="M0 0 C0.99 0.66 1.98 1.32 3 2 C2.79503906 2.556875 2.59007812 3.11375 2.37890625 3.6875 C1.02668134 7.51772557 -0.13933412 11.13607849 -0.5625 15.1875 C-0.96959211 18.73501693 -1.75117358 21.66979621 -3 25 C-3.66 25 -4.32 25 -5 25 C-5.33 26.32 -5.66 27.64 -6 29 C-6.3149552 23.02392695 -5.17184922 17.98690877 -3.5625 12.25 C-3.21735352 10.97576172 -3.21735352 10.97576172 -2.86523438 9.67578125 C-1.97814936 6.42056492 -1.06716232 3.20148697 0 0 Z " fill="#AEE5FE" transform="translate(153,520)"/>
<path d="M0 0 C0.66 0 1.32 0 2 0 C2.53084792 2.91516484 3.04999055 5.83160557 3.5625 8.75 C3.71396484 9.575 3.86542969 10.4 4.02148438 11.25 C4.16005859 12.04921875 4.29863281 12.8484375 4.44140625 13.671875 C4.57232666 14.4050293 4.70324707 15.13818359 4.83813477 15.89355469 C5.01472806 18.19166476 4.61654241 19.79217032 4 22 C3.86070644 23.36676632 3.75634699 24.7374567 3.68359375 26.109375 C3.64169922 26.86347656 3.59980469 27.61757813 3.55664062 28.39453125 C3.49766602 29.56048828 3.49766602 29.56048828 3.4375 30.75 C3.39431641 31.54277344 3.35113281 32.33554687 3.30664062 33.15234375 C3.20097009 35.10137815 3.10002034 37.05066748 3 39 C2.67 39 2.34 39 2 39 C1.96241577 38.02728149 1.96241577 38.02728149 1.92407227 37.03491211 C1.44157133 24.67697998 0.92896186 12.33345101 0 0 Z " fill="#B0ACFE" transform="translate(833,547)"/>
<path d="M0 0 C-3.26545761 1.88391785 -6.28111761 2.49287967 -10 3 C-10.33 3.99 -10.66 4.98 -11 6 C-12.06541016 6.07347656 -12.06541016 6.07347656 -13.15234375 6.1484375 C-14.07144531 6.22320312 -14.99054688 6.29796875 -15.9375 6.375 C-16.85402344 6.44460937 -17.77054687 6.51421875 -18.71484375 6.5859375 C-19.84599609 6.79089844 -19.84599609 6.79089844 -21 7 C-21.33 7.66 -21.66 8.32 -22 9 C-24.97 9 -27.94 9 -31 9 C-28.38083275 7.2538885 -26.62625021 6.43921596 -23.69140625 5.52734375 C-22.86189453 5.26759766 -22.03238281 5.00785156 -21.17773438 4.74023438 C-20.31470703 4.47533203 -19.45167969 4.21042969 -18.5625 3.9375 C-17.70333984 3.66873047 -16.84417969 3.39996094 -15.95898438 3.12304688 C-5.43478736 -0.15096632 -5.43478736 -0.15096632 0 0 Z " fill="#A0D8FE" transform="translate(451,246)"/>
<path d="M0 0 C0.66 0.33 1.32 0.66 2 1 C1.60167969 1.97839844 1.20335937 2.95679688 0.79296875 3.96484375 C-2.02215194 10.91750004 -4.73968281 17.8423289 -7 25 C-7.99 24.67 -8.98 24.34 -10 24 C-8.90439364 20.93437022 -7.79700428 17.8731245 -6.6875 14.8125 C-6.37876953 13.94818359 -6.07003906 13.08386719 -5.75195312 12.19335938 C-4.17171639 7.85186687 -2.59725691 3.85992334 0 0 Z " fill="#8CD4FE" transform="translate(324,389)"/>
<path d="M0 0 C0.99 0.33 1.98 0.66 3 1 C2.25234375 1.86882812 1.5046875 2.73765625 0.734375 3.6328125 C-0.26058656 4.79672979 -1.25536868 5.96080049 -2.25 7.125 C-2.74113281 7.69476563 -3.23226563 8.26453125 -3.73828125 8.8515625 C-6.78048381 12.42108017 -9.47618317 16.0460203 -12 20 C-12.66 19.34 -13.32 18.68 -14 18 C-11.8978399 14.15812119 -10.15912978 11.03524233 -7 8 C-5.76122932 6.61268295 -4.53235217 5.2164808 -3.3125 3.8125 C-2.68988281 3.09707031 -2.06726563 2.38164062 -1.42578125 1.64453125 C-0.95527344 1.10183594 -0.48476563 0.55914062 0 0 Z " fill="#94D7FE" transform="translate(354,342)"/>
<path d="M0 0 C-2.88057458 2.34713484 -5.52764679 3.7079616 -9 5 C-10.175625 5.515625 -11.35125 6.03125 -12.5625 6.5625 C-17.80921053 8.75657895 -17.80921053 8.75657895 -20 9 C-20.66 8.34 -21.32 7.68 -22 7 C-18.90249398 5.63021499 -15.79608343 4.28193428 -12.6875 2.9375 C-11.80642578 2.54755859 -10.92535156 2.15761719 -10.01757812 1.75585938 C-9.17001953 1.39169922 -8.32246094 1.02753906 -7.44921875 0.65234375 C-6.27879028 0.14175415 -6.27879028 0.14175415 -5.0847168 -0.37915039 C-3 -1 -3 -1 0 0 Z " fill="#97D8FE" transform="translate(420,256)"/>
<path d="M0 0 C0 3 0 3 -1.6796875 5.04296875 C-2.76636719 6.10451172 -2.76636719 6.10451172 -3.875 7.1875 C-4.59429688 7.90292969 -5.31359375 8.61835937 -6.0546875 9.35546875 C-8 11 -8 11 -10 11 C-10 11.66 -10 12.32 -10 13 C-11.86328125 14.76171875 -11.86328125 14.76171875 -14.3125 16.6875 C-15.51326172 17.65236328 -15.51326172 17.65236328 -16.73828125 18.63671875 C-17.48464844 19.08660156 -18.23101563 19.53648437 -19 20 C-19.99 19.67 -20.98 19.34 -22 19 C-21.278125 18.62875 -20.55625 18.2575 -19.8125 17.875 C-16.81911563 16.0717619 -16.81911563 16.0717619 -14.5 13 C-12.04461636 10.05353963 -10.23160641 8.92357524 -7 7 C-4.57558165 4.75273122 -2.27731825 2.39545003 0 0 Z " fill="#BEB6FD" transform="translate(832,681)"/>
<path d="M0 0 C0.66 0.66 1.32 1.32 2 2 C1.10796875 2.81984375 0.2159375 3.6396875 -0.703125 4.484375 C-1.88545786 5.57287192 -3.06774723 6.66141608 -4.25 7.75 C-5.12978516 8.55824219 -5.12978516 8.55824219 -6.02734375 9.3828125 C-9.08156981 12.19681853 -12.09140745 15.03381156 -15 18 C-15 14 -15 14 -12.91796875 11.45703125 C-11.56638672 10.14798828 -11.56638672 10.14798828 -10.1875 8.8125 C-9.29417969 7.93207031 -8.40085938 7.05164063 -7.48046875 6.14453125 C-5 4 -5 4 -2 3 C-1.34 2.01 -0.68 1.02 0 0 Z " fill="#9CD6FE" transform="translate(225,479)"/>
<path d="M0 0 C0.99 0.66 1.98 1.32 3 2 C1.56877218 3.48523642 0.12979111 4.96300462 -1.3125 6.4375 C-2.11300781 7.26121094 -2.91351562 8.08492188 -3.73828125 8.93359375 C-6 11 -6 11 -9 12 C-9.33 12.66 -9.66 13.32 -10 14 C-10.66 13.67 -11.32 13.34 -12 13 C-8.13635705 8.51282966 -4.25209792 4.12324647 0 0 Z " fill="#98CCFE" transform="translate(542,468)"/>
<path d="M0 0 C2.36817061 3.55225592 4.21689394 7.2496591 6.125 11.0625 C6.68380859 12.16174805 6.68380859 12.16174805 7.25390625 13.28320312 C10 18.7603022 10 18.7603022 10 21 C9.34 21 8.68 21 8 21 C-1.49435885 7.85599903 -1.49435885 7.85599903 -0.6875 1.5625 C-0.460625 1.046875 -0.23375 0.53125 0 0 Z " fill="#94D3FE" transform="translate(190,617)"/>
<path d="M0 0 C1.42600325 4.27800976 -0.54362936 6.86765922 -2.4375 10.6875 C-2.77587891 11.38939453 -3.11425781 12.09128906 -3.46289062 12.81445312 C-4.29981348 14.54723706 -5.14877393 16.27419752 -6 18 C-6.66 17.34 -7.32 16.68 -8 16 C-8 15.01 -8 14.02 -8 13 C-7.34 13 -6.68 13 -6 13 C-5.67 10.69 -5.34 8.38 -5 6 C-4.34 6 -3.68 6 -3 6 C-2.67 5.01 -2.34 4.02 -2 3 C-1.34 2.01 -0.68 1.02 0 0 Z " fill="#B9ABFE" transform="translate(863,630)"/>
<path d="M0 0 C0.66 0 1.32 0 2 0 C2.62493425 9.9121515 2.62493425 9.9121515 0.3125 13.9375 C-2.06242657 16.05567775 -4.45373823 18.09030367 -7 20 C-7.66 19.67 -8.32 19.34 -9 19 C-8.60167969 18.59910156 -8.20335937 18.19820312 -7.79296875 17.78515625 C-2.99537413 12.63737224 0 7.17284112 0 0 Z " fill="#B9BDFE" transform="translate(748,585)"/>
<path d="M0 0 C0.66 0.33 1.32 0.66 2 1 C1.38511719 1.74443359 1.38511719 1.74443359 0.7578125 2.50390625 C-2.76054568 6.93973103 -4.84356739 10.44912349 -6 16 C-6.33 16 -6.66 16 -7 16 C-7.76140684 8.38593156 -7.76140684 8.38593156 -5.95703125 5.1015625 C-4.17646218 2.96070232 -2.50485776 1.25242888 0 0 Z " fill="#9FC9FE" transform="translate(571,357)"/>
<path d="M0 0 C6.02495624 0.71825289 12.00942133 1.60087869 18 2.5625 C19.30517578 2.77036133 19.30517578 2.77036133 20.63671875 2.98242188 C22.75800183 3.32042852 24.87902816 3.66004584 27 4 C27 4.33 27 4.66 27 5 C20.4 5 13.8 5 7 5 C7 4.34 7 3.68 7 3 C6.401875 2.87625 5.80375 2.7525 5.1875 2.625 C3 2 3 2 0 0 Z " fill="#A8D8FE" transform="translate(268,691)"/>
<path d="M0 0 C0.33 0.66 0.66 1.32 1 2 C0.22265625 4.1640625 0.22265625 4.1640625 -0.9375 6.625 C-1.31777344 7.44226563 -1.69804687 8.25953125 -2.08984375 9.1015625 C-2.39019531 9.72804688 -2.69054687 10.35453125 -3 11 C-3.33 11 -3.66 11 -4 11 C-4.08159574 15.16138263 -3.98248524 18.9472484 -3 23 C-5 22 -5 22 -6 19 C-7.03395099 11.74925511 -5.67431916 7.45313998 -1.3125 1.6171875 C-0.879375 1.08351563 -0.44625 0.54984375 0 0 Z " fill="#ABDAFE" transform="translate(484,530)"/>
<path d="M0 0 C-3.12648749 2.08432499 -6.05730868 3.28558611 -9.5625 4.625 C-11.29693359 5.29402344 -11.29693359 5.29402344 -13.06640625 5.9765625 C-16 7 -16 7 -18 7 C-18 6.01 -18 5.02 -18 4 C-6.66287016 -0.59225513 -6.66287016 -0.59225513 0 0 Z " fill="#A1D8FE" transform="translate(266,460)"/>
<path d="M0 0 C-2.12232979 1.17176518 -4.24757791 2.33754785 -6.375 3.5 C-6.97828125 3.83386719 -7.5815625 4.16773438 -8.203125 4.51171875 C-12.7734375 7 -12.7734375 7 -15 7 C-14.67 6.01 -14.34 5.02 -14 4 C-12.66666667 3.66666667 -11.33333333 3.33333333 -10 3 C-9.67 2.01 -9.34 1.02 -9 0 C-2.25 -1.125 -2.25 -1.125 0 0 Z " fill="#AEACFE" transform="translate(794,714)"/>
<path d="M0 0 C3.45201639 1.47721422 5.64961936 3.43794001 8.25 6.125 C8.95640625 6.84945313 9.6628125 7.57390625 10.390625 8.3203125 C11.18726563 9.15175781 11.18726563 9.15175781 12 10 C11.01 11.485 11.01 11.485 10 13 C9.2575 12.05125 8.515 11.1025 7.75 10.125 C6.07842387 8.0877666 5.16555401 7.07817828 2.75 5.9375 C2.1725 5.628125 1.595 5.31875 1 5 C0.25 2.375 0.25 2.375 0 0 Z " fill="#B3AAFD" transform="translate(816,450)"/>
<path d="M0 0 C0.33 0 0.66 0 1 0 C1.36263859 5.8022175 0.25684543 9.63999211 -2 15 C-2.99 15 -3.98 15 -5 15 C-4.43174347 9.45949887 -2.37113483 4.96284034 0 0 Z " fill="#A8E5FE" transform="translate(159,505)"/>
<path d="M0 0 C3.63286955 1.21095652 4.43006752 2.79359383 6.21484375 6.078125 C7.31643358 8.77455384 7.27986167 11.13141789 7 14 C4.44736912 11.725306 3.15855185 9.56797307 1.8125 6.4375 C1.46832031 5.65246094 1.12414062 4.86742187 0.76953125 4.05859375 C0 2 0 2 0 0 Z " fill="#AEE2FE" transform="translate(159,640)"/>
<path d="M0 0 C3.24262993 2.72220784 4.89759525 6.27994438 6.75 10 C7.07871094 10.6290625 7.40742187 11.258125 7.74609375 11.90625 C8.57925132 13.56553427 9.29763177 15.28126363 10 17 C9.67 17.99 9.34 18.98 9 20 C6 14.25 6 14.25 6 12 C5.34 12 4.68 12 4 12 C3.3291288 10.3767313 2.66342971 8.75132422 2 7.125 C1.62875 6.22007812 1.2575 5.31515625 0.875 4.3828125 C0 2 0 2 0 0 Z " fill="#CABCFD" transform="translate(851,491)"/>
<path d="M0 0 C0.66 0.66 1.32 1.32 2 2 C2.66 1.67 3.32 1.34 4 1 C4.5775 1.7425 5.155 2.485 5.75 3.25 C7.72253526 5.66087643 9.76044282 7.84042701 12 10 C11.67 10.66 11.34 11.32 11 12 C10.45730469 11.50628906 9.91460938 11.01257813 9.35546875 10.50390625 C8.64003906 9.86324219 7.92460938 9.22257812 7.1875 8.5625 C6.47980469 7.92441406 5.77210938 7.28632813 5.04296875 6.62890625 C3.00103848 4.80913988 3.00103848 4.80913988 0 4 C0 2.68 0 1.36 0 0 Z " fill="#A7A6FE" transform="translate(784,426)"/>
<path d="M0 0 C0.91191297 2.48957835 1.15965671 3.60705494 0.14453125 6.10546875 C-0.29503906 6.79253906 -0.73460937 7.47960937 -1.1875 8.1875 C-1.82751953 9.22970703 -1.82751953 9.22970703 -2.48046875 10.29296875 C-4.25705243 12.28877098 -5.39611102 12.62642278 -8 13 C-6.53181332 9.89257577 -4.79975 7.09528261 -2.875 4.25 C-2.33617187 3.45078125 -1.79734375 2.6515625 -1.2421875 1.828125 C-0.62730469 0.92320312 -0.62730469 0.92320312 0 0 Z " fill="#A9ADFE" transform="translate(817,638)"/>
<path d="M0 0 C5.58490476 4.44512827 9.79211991 9.24454091 14 15 C13.67 15.66 13.34 16.32 13 17 C12.38125 16.360625 11.7625 15.72125 11.125 15.0625 C9.17402388 12.96116416 9.17402388 12.96116416 7 12 C6.731875 11.2575 6.46375 10.515 6.1875 9.75 C4.73538495 6.38720726 2.60260301 4.53411346 0 2 C0 1.34 0 0.68 0 0 Z " fill="#C3C5FE" transform="translate(715,521)"/>
<path d="M0 0 C0.66 0 1.32 0 2 0 C0.50829734 4.9723422 -1.60457417 9.41845739 -4 14 C-4.66 13.01 -5.32 12.02 -6 11 C-5.5390625 8.95703125 -5.5390625 8.95703125 -4.625 6.8125 C-4.32851562 6.09707031 -4.03203125 5.38164063 -3.7265625 4.64453125 C-3.48679688 4.10183594 -3.24703125 3.55914063 -3 3 C-2.34 3 -1.68 3 -1 3 C-0.67 2.01 -0.34 1.02 0 0 Z " fill="#A5D8FE" transform="translate(197,512)"/>
<path d="M0 0 C0.66 0 1.32 0 2 0 C1.48462048 7.13393752 0.55994099 14.01812817 -1 21 C-2.92164349 17.76392379 -3.05285247 17.2398689 -2.1875 13.3125 C-1.98769531 12.62800781 -1.78789062 11.94351562 -1.58203125 11.23828125 C-0.62260387 7.54867127 -0.33334781 3.78963826 0 0 Z " fill="#A0DBFE" transform="translate(310,430)"/>
<path d="M0 0 C2.475 0.495 2.475 0.495 5 1 C5 1.66 5 2.32 5 3 C5.86625 3.37125 5.86625 3.37125 6.75 3.75 C9.3002997 5.16683317 11.01785701 6.87627537 13 9 C12.67 9.99 12.34 10.98 12 12 C8 8 4 4 0 0 Z " fill="#A7AAFE" transform="translate(788,476)"/>
<path d="M0 0 C5.40489519 1.52012677 8.98492628 5.27385218 13 9 C12.01 9.66 11.02 10.32 10 11 C10 10.34 10 9.68 10 9 C8.68 8.34 7.36 7.68 6 7 C6 6.34 6 5.68 6 5 C5.195625 4.731875 4.39125 4.46375 3.5625 4.1875 C2.716875 3.795625 1.87125 3.40375 1 3 C0.67 2.01 0.34 1.02 0 0 Z " fill="#ABB1FD" transform="translate(762,249)"/>
<path d="M0 0 C2.125 0.375 2.125 0.375 4 1 C3.34 2.32 2.68 3.64 2 5 C1.01 5 0.02 5 -1 5 C-1.33 5.99 -1.66 6.98 -2 8 C-2.99 7.67 -3.98 7.34 -5 7 C-3.47793991 4.37098712 -2.15634036 2.15634036 0 0 Z " fill="#A0A7FE" transform="translate(794,665)"/>
<path d="M0 0 C0.33 0 0.66 0 1 0 C1.93838047 6.89836454 2.13645572 12.33928512 0 19 C-0.66 18.67 -1.32 18.34 -2 18 C-1.34 12.06 -0.68 6.12 0 0 Z " fill="#ADAAFE" transform="translate(834,586)"/>
<path d="M0 0 C-1.66388649 0.71309421 -3.32839752 1.42476784 -4.99609375 2.12890625 C-6.29233221 2.69237833 -7.57760968 3.28208845 -8.84765625 3.90234375 C-12.64742514 5.71454122 -14.95975072 6.34674976 -19 5 C-18.34 4.67 -17.68 4.34 -17 4 C-16.67 3.34 -16.34 2.68 -16 2 C-14.04911056 1.73547262 -12.09627328 1.47903727 -10.13671875 1.2890625 C-7.75334777 1.03415173 -7.75334777 1.03415173 -4.625 -0.125 C-2 -1 -2 -1 0 0 Z " fill="#8B9DFE" transform="translate(758,690)"/>
<path d="M0 0 C3.1934039 1.59670195 3.9214907 4.77081629 5 8 C5.4054103 10.32189536 5.76072994 12.65515344 6 15 C5.67 14.34 5.34 13.68 5 13 C4.34 13 3.68 13 3 13 C2.49242138 11.58603098 1.99425075 10.16868271 1.5 8.75 C1.08234375 7.56664062 1.08234375 7.56664062 0.65625 6.359375 C0 4 0 4 0 0 Z " fill="#A4A2FE" transform="translate(825,521)"/>
<path d="M0 0 C0.66 1.32 1.32 2.64 2 4 C1.34 4 0.68 4 0 4 C0 4.99 0 5.98 0 7 C-1.8125 8.0625 -1.8125 8.0625 -4 9 C-4.99 8.67 -5.98 8.34 -7 8 C-4.69 5.36 -2.38 2.72 0 0 Z " fill="#93CFFE" transform="translate(494,519)"/>
<path d="M0 0 C1.485 0.99 1.485 0.99 3 2 C3 2.99 3 3.98 3 5 C4.65 3.68 6.3 2.36 8 1 C8 1.99 8 2.98 8 4 C3.77142857 8 3.77142857 8 0 8 C0 5.36 0 2.72 0 0 Z " fill="#7EBFFE" transform="translate(498,430)"/>
<path d="M0 0 C-0.21484375 1.890625 -0.21484375 1.890625 -1 4 C-3.06640625 5.046875 -3.06640625 5.046875 -5.5625 5.75 C-6.80193359 6.11351562 -6.80193359 6.11351562 -8.06640625 6.484375 C-9.02353516 6.73960937 -9.02353516 6.73960937 -10 7 C-10.66 6.34 -11.32 5.68 -12 5 C-10.37750059 4.16180842 -8.75191503 3.3295884 -7.125 2.5 C-6.22007812 2.0359375 -5.31515625 1.571875 -4.3828125 1.09375 C-2 0 -2 0 0 0 Z " fill="#9CDEFE" transform="translate(234,431)"/>
<path d="M0 0 C0 4.03381023 -1.59573562 5.49433637 -4 8.6875 C-4.7425 9.68136719 -5.485 10.67523438 -6.25 11.69921875 C-7.11625 12.83810547 -7.11625 12.83810547 -8 14 C-8.66 13.34 -9.32 12.68 -10 12 C-8.52149287 10.18696196 -7.04217625 8.37458402 -5.5625 6.5625 C-4.32693359 5.04849609 -4.32693359 5.04849609 -3.06640625 3.50390625 C-1 1 -1 1 0 0 Z " fill="#A0E0FE" transform="translate(329,314)"/>
<path d="M0 0 C0.66 0.33 1.32 0.66 2 1 C1.2884375 1.61875 1.2884375 1.61875 0.5625 2.25 C-1.14369792 3.87255091 -1.14369792 3.87255091 -1.4375 6 C-2.20391605 8.72503485 -3.67901268 9.50258883 -6 11 C-6.66 10.34 -7.32 9.68 -8 9 C-5.36 6.03 -2.72 3.06 0 0 Z " fill="#A3C9FE" transform="translate(590,416)"/>
<path d="M0 0 C-3.3 2.31 -6.6 4.62 -10 7 C-10.66 6.67 -11.32 6.34 -12 6 C-12 5.34 -12 4.68 -12 4 C-10.56988027 3.13353333 -9.13059381 2.28218171 -7.6875 1.4375 C-6.48673828 0.72400391 -6.48673828 0.72400391 -5.26171875 -0.00390625 C-3 -1 -3 -1 0 0 Z " fill="#96D6FE" transform="translate(394,311)"/>
<path d="M0 0 C0.99 0.33 1.98 0.66 3 1 C3 1.99 3 2.98 3 4 C0.73783745 5.54779543 -1.55224566 6.77612283 -4 8 C-4.66 7.34 -5.32 6.68 -6 6 C-4.02 4.02 -2.04 2.04 0 0 Z " fill="#93C4FE" transform="translate(572,436)"/>
<path d="M0 0 C0.66 0.99 1.32 1.98 2 3 C-0.9905167 6.33557632 -3.93184627 8.15083921 -8 10 C-6.34908222 5.70761377 -3.26245434 3.1206085 0 0 Z " fill="#A4CDFE" transform="translate(581,426)"/>
<path d="M0 0 C0.99 0 1.98 0 3 0 C3 2.64 3 5.28 3 8 C3.66 8 4.32 8 5 8 C5.33 9.98 5.66 11.96 6 14 C2.67016949 11.30442292 1.45548306 7.95059687 0 4 C0 2.68 0 1.36 0 0 Z " fill="#A5CFFE" transform="translate(570,749)"/>
<path d="M0 0 C0 0.99 0 1.98 0 3 C-0.66 3 -1.32 3 -2 3 C-2 3.66 -2 4.32 -2 5 C-3.53125 6.2890625 -3.53125 6.2890625 -5.5 7.625 C-6.1496875 8.07101562 -6.799375 8.51703125 -7.46875 8.9765625 C-7.9740625 9.31429687 -8.479375 9.65203125 -9 10 C-9.66 9.67 -10.32 9.34 -11 9 C-10.67 8.34 -10.34 7.68 -10 7 C-9.01 7 -8.02 7 -7 7 C-6.773125 6.401875 -6.54625 5.80375 -6.3125 5.1875 C-4.66188867 2.43648112 -2.8027919 1.47515363 0 0 Z " fill="#B2B2FE" transform="translate(769,628)"/>
<path d="M0 0 C0.66 0.33 1.32 0.66 2 1 C1.67 3.31 1.34 5.62 1 8 C0.01 8.33 -0.98 8.66 -2 9 C-2.33 10.98 -2.66 12.96 -3 15 C-4.28497537 11.14507389 -3.4052209 9.59653164 -2.0625 5.8125 C-1.68222656 4.72582031 -1.30195313 3.63914062 -0.91015625 2.51953125 C-0.60980469 1.68808594 -0.30945313 0.85664063 0 0 Z " fill="#8FDBFF" transform="translate(283,391)"/>
<path d="M0 0 C0.66 0 1.32 0 2 0 C0.63408831 3.54243452 -0.90931484 6.92627929 -2.625 10.3125 C-3.07101562 11.19550781 -3.51703125 12.07851563 -3.9765625 12.98828125 C-4.31429688 13.65214844 -4.65203125 14.31601562 -5 15 C-6.25541557 11.23375329 -5.37061958 9.62811066 -4 6 C-3.34 6 -2.68 6 -2 6 C-1.855625 5.195625 -1.71125 4.39125 -1.5625 3.5625 C-1 1 -1 1 0 0 Z " fill="#92D6FE" transform="translate(332,373)"/>
<path d="M0 0 C0.58265625 0.23589844 1.1653125 0.47179687 1.765625 0.71484375 C-0.97833064 3.66205537 -3.61774716 5.90652983 -7.234375 7.71484375 C-7.894375 7.38484375 -8.554375 7.05484375 -9.234375 6.71484375 C-8.16721428 5.51278911 -7.07999163 4.32852042 -5.984375 3.15234375 C-5.38109375 2.49105469 -4.7778125 1.82976562 -4.15625 1.1484375 C-2.234375 -0.28515625 -2.234375 -0.28515625 0 0 Z " fill="#9CDEFE" transform="translate(346.234375,299.28515625)"/>
<path d="M0 0 C-1.98 0.33 -3.96 0.66 -6 1 C-6 1.66 -6 2.32 -6 3 C-9.3 3 -12.6 3 -16 3 C-13.13771795 1.56885897 -11.00359672 0.59273118 -8 -0.1875 C-7.34 -0.36667969 -6.68 -0.54585937 -6 -0.73046875 C-3.73459024 -1.03576811 -2.164908 -0.68136613 0 0 Z " fill="#919BFE" transform="translate(760,728)"/>
<path d="M0 0 C1.32 0.33 2.64 0.66 4 1 C-0.455 3.97 -0.455 3.97 -5 7 C-5.66 6.67 -6.32 6.34 -7 6 C-5.1875 4 -5.1875 4 -3 2 C-2.01 2 -1.02 2 0 2 C0 1.34 0 0.68 0 0 Z " fill="#B7B3FE" transform="translate(801,706)"/>
<path d="M0 0 C1.07694171 2.80004844 0.95876997 4.1911574 0.3125 7.1875 C-1 10 -1 10 -3.125 10.875 C-3.74375 10.91625 -4.3625 10.9575 -5 11 C-3.55049545 7.2089881 -1.84827434 3.6125362 0 0 Z " fill="#A7A9FE" transform="translate(823,627)"/>
<path d="M0 0 C0.99 0 1.98 0 3 0 C3.33 3.63 3.66 7.26 4 11 C3.67 9.68 3.34 8.36 3 7 C2.01 7 1.02 7 0 7 C0 4.69 0 2.38 0 0 Z " fill="#BDADFE" transform="translate(868,540)"/>
<path d="M0 0 C0 0.99 0 1.98 0 3 C-0.474375 3.45375 -0.94875 3.9075 -1.4375 4.375 C-3.44583349 6.46366683 -3.61869524 8.1783448 -4 11 C-5.32 10.34 -6.64 9.68 -8 9 C-5.36 6.03 -2.72 3.06 0 0 Z " fill="#A7D1FE" transform="translate(563,445)"/>
<path d="M0 0 C0 0.33 0 0.66 0 1 C-5.445 1.495 -5.445 1.495 -11 2 C-11.33 2.99 -11.66 3.98 -12 5 C-13.65 5 -15.3 5 -17 5 C-12.26560922 -0.48192616 -6.74631671 -0.26456144 0 0 Z " fill="#B6D3FE" transform="translate(609,411)"/>
<path d="M0 0 C0.66 0.33 1.32 0.66 2 1 C1.67 2.32 1.34 3.64 1 5 C0.34 5 -0.32 5 -1 5 C-1.33 6.98 -1.66 8.96 -2 11 C-2.99 11.33 -3.98 11.66 -5 12 C-3.68938409 7.76570244 -2.05643741 3.92592596 0 0 Z " fill="#8CDCFE" transform="translate(296,361)"/>
<path d="M0 0 C0.99 0.33 1.98 0.66 3 1 C0.36 3.64 -2.28 6.28 -5 9 C-5.33 8.01 -5.66 7.02 -6 6 C-4.02 4.02 -2.04 2.04 0 0 Z " fill="#92CAFE" transform="translate(512,424)"/>
<path d="M0 0 C-1 3 -1 3 -3.875 4.6875 C-7 6 -7 6 -10 6 C-10 5.34 -10 4.68 -10 4 C-8.71086513 3.32845067 -7.41859796 2.66291141 -6.125 2 C-5.40570312 1.62875 -4.68640625 1.2575 -3.9453125 0.875 C-2 0 -2 0 0 0 Z " fill="#94BFFE" transform="translate(626,770)"/>
<path d="M0 0 C1.32 0.66 2.64 1.32 4 2 C4 2.66 4 3.32 4 4 C4.66 4 5.32 4 6 4 C6.33 5.32 6.66 6.64 7 8 C3.2047869 6.50902342 1.38957269 4.24299151 -1 1 C-0.67 0.67 -0.34 0.34 0 0 Z " fill="#A0D8FE" transform="translate(195,689)"/>
<path d="M0 0 C0 3.41321235 -0.66867466 4.39472885 -2.5 7.1875 C-2.9640625 7.90292969 -3.428125 8.61835938 -3.90625 9.35546875 C-4.2671875 9.89816406 -4.628125 10.44085938 -5 11 C-5.61328125 9.19921875 -5.61328125 9.19921875 -6 7 C-2.82191781 1.4109589 -2.82191781 1.4109589 0 0 Z " fill="#96D8FE" transform="translate(340,362)"/>
<path d="M0 0 C0.99 0.33 1.98 0.66 3 1 C0.36 3.64 -2.28 6.28 -5 9 C-5.66 8.67 -6.32 8.34 -7 8 C-4.69 5.36 -2.38 2.72 0 0 Z " fill="#9DDBFF" transform="translate(371,325)"/>
<path d="M0 0 C0.66 0.33 1.32 0.66 2 1 C2 6.30479934 0.4637943 7.18982627 -3 11 C-3.66 10.34 -4.32 9.68 -5 9 C-4.0409375 8.443125 -4.0409375 8.443125 -3.0625 7.875 C-0.36141928 5.41947207 -0.31592995 3.55421195 0 0 Z " fill="#C1B4FD" transform="translate(842,664)"/>
<path d="M0 0 C0.33 0.66 0.66 1.32 1 2 C0.29296875 3.91015625 0.29296875 3.91015625 -0.8125 6.0625 C-1.16957031 6.77535156 -1.52664063 7.48820313 -1.89453125 8.22265625 C-3 10 -3 10 -5 11 C-4.55123384 9.35153231 -4.09069512 7.70626545 -3.625 6.0625 C-3.36976563 5.14597656 -3.11453125 4.22945312 -2.8515625 3.28515625 C-2 1 -2 1 0 0 Z " fill="#A4A7FE" transform="translate(829,616)"/>
<path d="M0 0 C2.31 0.33 4.62 0.66 7 1 C7.66 2.65 8.32 4.3 9 6 C5.06326356 4.68775452 2.77280706 3.08089673 0 0 Z " fill="#A1D6FE" transform="translate(211,704)"/>
<path d="M0 0 C5.75 1.75 5.75 1.75 8 4 C6.02 4.33 4.04 4.66 2 5 C1.34 3.35 0.68 1.7 0 0 Z " fill="#9FD2FD" transform="translate(249,683)"/>
<path d="M0 0 C0.33 0 0.66 0 1 0 C0.25 7.625 0.25 7.625 -2 11 C-2.95465783 8.83032311 -3.14401212 7.43671207 -2.3984375 5.17578125 C-1.64129615 3.4315257 -0.82390802 1.71372869 0 0 Z " fill="#9B8FFE" transform="translate(867,612)"/>
<path d="M0 0 C-6.39130435 4.26086957 -6.39130435 4.26086957 -10.3125 3.625 C-10.869375 3.41875 -11.42625 3.2125 -12 3 C-11.34 3 -10.68 3 -10 3 C-10 2.34 -10 1.68 -10 1 C-6.52674819 -0.1577506 -3.63932552 -0.06866652 0 0 Z " fill="#8FD7FF" transform="translate(257,424)"/>
<path d="M0 0 C0.66 0.33 1.32 0.66 2 1 C-0.35277269 3.72426311 -2.62496331 4.8141763 -6 6 C-6.66 5.34 -7.32 4.68 -8 4 C-6.71349294 3.30289269 -5.42059335 2.61757124 -4.125 1.9375 C-3.40570313 1.55464844 -2.68640625 1.17179687 -1.9453125 0.77734375 C-1.30335938 0.52082031 -0.66140625 0.26429688 0 0 Z " fill="#9EDCFE" transform="translate(396,264)"/>
<path d="M0 0 C7.57142857 4.14285714 7.57142857 4.14285714 10 7 C6.4257023 6.67506385 4.44287547 6.36129314 1.625 4.0625 C0 2 0 2 0 0 Z " fill="#A2D7FE" transform="translate(231,672)"/>
<path d="M0 0 C1.98 0.66 3.96 1.32 6 2 C6 2.66 6 3.32 6 4 C6.66 4.33 7.32 4.66 8 5 C4.44219804 4.39009109 1.3171411 3.4216319 -2 2 C-1.34 1.34 -0.68 0.68 0 0 Z " fill="#A8D7FE" transform="translate(240,719)"/>
<path d="M0 0 C-1.27382218 2.54764436 -2.56665433 3.5399926 -5 5 C-7.25 4.6875 -7.25 4.6875 -9 4 C-3.7826087 0 -3.7826087 0 0 0 Z " fill="#8D9DFE" transform="translate(773,683)"/>
<path d="M0 0 C2.27505004 2.16671432 4.23575092 4.39563231 6 7 C6 7.66 6 8.32 6 9 C4.68 8.34 3.36 7.68 2 7 C2 6.34 2 5.68 2 5 C1.34 4.67 0.68 4.34 0 4 C0 2.68 0 1.36 0 0 Z " fill="#98D4FE" transform="translate(200,638)"/>
<path d="M0 0 C0.66 0.66 1.32 1.32 2 2 C1.01 4.64 0.02 7.28 -1 10 C-1.66 10 -2.32 10 -3 10 C-2.01 6.7 -1.02 3.4 0 0 Z " fill="#8CDAFE" transform="translate(287,380)"/>
<path d="M0 0 C2.97 0.495 2.97 0.495 6 1 C6 1.66 6 2.32 6 3 C7.32 3.66 8.64 4.32 10 5 C6.05140217 4.4359146 3.29120954 3.2568294 0 1 C0 0.67 0 0.34 0 0 Z " fill="#A7CEFD" transform="translate(584,771)"/>
<path d="M0 0 C0.99 0.33 1.98 0.66 3 1 C3 1.66 3 2.32 3 3 C3.66 3 4.32 3 5 3 C5 4.65 5 6.3 5 8 C2.20127563 5.47211993 0.54226981 3.79588866 0 0 Z " fill="#B5E2FD" transform="translate(166,654)"/>
<path d="M0 0 C3.78125 0.7578125 3.78125 0.7578125 5.75 2.9375 C7 5 7 5 7 7 C6.34 7 5.68 7 5 7 C3.7109375 5.46875 3.7109375 5.46875 2.375 3.5 C1.70597656 2.52546875 1.70597656 2.52546875 1.0234375 1.53125 C0.68570313 1.0259375 0.34796875 0.520625 0 0 Z " fill="#9FBFFE" transform="translate(614,302)"/>
<path d="M0 0 C0 3.93169105 -1.39419615 5.16427228 -4 8 C-4.66 8 -5.32 8 -6 8 C-4.73058503 4.08597051 -3.48832306 2.20927127 0 0 Z " fill="#979FFE" transform="translate(807,654)"/>
<path d="M0 0 C1.42944945 2.35438733 2.08661261 3.48032433 1.625 6.25 C1.41875 6.8275 1.2125 7.405 1 8 C-0.5625 6.1875 -0.5625 6.1875 -2 4 C-1 1 -1 1 0 0 Z " fill="#AFE3FD" transform="translate(158,632)"/>
<path d="M0 0 C1.60080151 4.00200378 0.29279692 7.04556236 -1 11 C-1.91026797 7.92784561 -2.25288404 5.20319784 -2 2 C-1.34 1.34 -0.68 0.68 0 0 Z " fill="#86C7FE" transform="translate(186,536)"/>
<path d="M0 0 C-3.53411321 2.12046792 -6.94393835 2.53199289 -11 3 C-10.01 2.67 -9.02 2.34 -8 2 C-8 1.34 -8 0.68 -8 0 C-5.13822943 -1.43088528 -3.06624227 -0.59991697 0 0 Z " fill="#ABDCFE" transform="translate(451,286)"/>
<path d="M0 0 C2 1 2 1 2 1 Z " fill="#92D5FD" transform="translate(272,417)"/>
<path d="" fill="#94CDF9" transform="translate(0,0)"/>
<path d="" fill="#93CDFB" transform="translate(0,0)"/>
<path d="" fill="#9BACFF" transform="translate(0,0)"/>
<path d="" fill="#9AA8FF" transform="translate(0,0)"/>
<path d="" fill="#99D6FF" transform="translate(0,0)"/>
<path d="" fill="#ADA3F8" transform="translate(0,0)"/>
<path d="" fill="#AAA4F4" transform="translate(0,0)"/>
<path d="" fill="#97D8FF" transform="translate(0,0)"/>
<path d="" fill="#97ACFD" transform="translate(0,0)"/>
<path d="" fill="#8FB5FF" transform="translate(0,0)"/>
<path d="" fill="#99D4F7" transform="translate(0,0)"/>
</svg>
